<?xml version="1.0" standalone="no"?>
<!DOCTYPE svg PUBLIC "-//W3C//DTD SVG 20010904//EN"
 "http://www.w3.org/TR/2001/REC-SVG-20010904/DTD/svg10.dtd">
 
<svg version="1.0" xmlns="http://www.w3.org/2000/svg"
 width="1280.000000pt" height="405.000000pt" viewBox="0 0 1280.000000 405.000000"
 preserveAspectRatio="xMidYMid meet">

	<g transform="translate(0.000000,405.000000) scale(0.100000,-0.100000)"
	fill="white" stroke-width="4px" stroke="#222">

	<path id="0" d="M1785 4016 c-564 -93 -1083 -550 -1430 -1260 -392 -803 -463 -1627
	-188 -2185 134 -271 348 -451 622 -522 110 -29 317 -36 446 -15 637 105 1214
	696 1544 1579 78 209 138 429 171 624 104 623 -22 1181 -342 1518 -115 122
	-234 198 -383 245 -88 28 -317 36 -440 16z m292 -403 c85 -42 106 -85 124
	-257 25 -242 -50 -678 -191 -1112 -188 -576 -499 -1181 -790 -1539 -119 -145
	-270 -266 -330 -264 -8 0 -49 17 -90 37 -70 35 -76 40 -94 87 -30 76 -26 268
	8 445 72 378 306 1084 518 1565 131 297 278 566 416 760 114 160 283 305 355
	305 10 0 43 -12 74 -27z"/>

	<path d="M4885 4019 c-711 -111 -1331 -775 -1654 -1772 -204 -629 -198 -1244
	17 -1672 142 -284 348 -457 628 -527 119 -30 365 -32 494 -4 658 143 1239 791
	1539 1720 177 547 205 1019 85 1439 -99 345 -303 616 -559 745 -117 58 -187
	74 -345 77 -80 2 -172 0 -205 -6z m285 -412 c47 -29 58 -41 78 -90 103 -258
	-14 -943 -274 -1599 -284 -718 -734 -1397 -974 -1469 -32 -10 -43 -7 -115 28
	-76 36 -81 41 -100 88 -25 64 -26 267 -2 400 51 279 183 720 353 1177 277 748
	636 1351 875 1470 70 35 93 35 159 -5z"/>

<!-- 	<g fill="#6A0000" stroke-width="3px" stroke="#222"> -->

		<path id="7" d="M6553 3958 c-80 -128 -199 -396 -280 -633 -42 -123 -123 -401 -123
		-420 0 -13 41 -15 273 -15 l274 0 31 84 c18 46 78 175 135 287 l102 204 628 3
		c454 1 627 -1 627 -9 0 -27 -63 -196 -104 -276 -86 -173 -89 -177 -957 -1243
		-452 -557 -559 -697 -683 -904 -74 -122 -197 -375 -264 -541 -53 -132 -132
		-364 -132 -387 0 -4 234 -8 520 -8 l519 0 11 43 c53 204 177 485 353 797 155
		276 174 301 599 821 368 451 658 832 777 1023 207 330 342 702 381 1051 5 50
		10 107 10 128 l0 37 -1335 0 -1335 0 -27 -42z"/>

		<path d="M9480 3993 c0 -10 -5 -67 -10 -127 -20 -212 -77 -441 -141 -568 -16
		-32 -29 -60 -29 -63 0 -3 443 -5 984 -5 l984 0 22 35 c12 19 41 52 66 74 82
		72 76 71 640 71 l502 0 76 75 c167 168 248 350 220 494 l-6 31 -1654 0 c-1569
		0 -1654 -1 -1654 -17z"/>

		<path d="M9206 3035 c-45 -69 -106 -274 -106 -357 0 -60 40 -200 76 -269 33
		-62 138 -179 162 -179 4 0 16 44 26 98 9 53 31 156 49 227 l32 130 308 3 c169
		1 307 -1 307 -6 0 -19 -67 -179 -125 -297 -114 -233 -232 -385 -342 -440 l-58
		-30 -540 -3 -540 -4 -83 -104 -83 -105 643 4 c626 3 645 4 727 25 126 33 194
		74 263 157 78 94 238 335 388 585 68 113 136 219 153 237 43 46 134 82 276
		111 69 13 149 36 176 49 68 34 146 95 190 149 l36 44 -959 0 -960 0 -16 -25z"/>

<!-- 	</g> -->

	<path d="M7501 438 c-8 -21 -5 -23 30 -26 22 -2 39 -7 39 -12 0 -5 -18 -56
	-41 -112 -23 -57 -50 -125 -60 -151 l-19 -48 31 3 c30 3 33 7 93 158 l62 155
	44 3 c43 3 60 14 60 40 0 9 -30 12 -115 12 -111 0 -116 -1 -124 -22z"/>

	<path d="M7771 438 c-5 -13 -37 -93 -70 -178 -34 -85 -61 -158 -61 -162 0 -5
	11 -8 24 -8 21 0 30 16 82 144 33 79 60 143 61 142 1 -1 -6 -58 -17 -126 -26
	-164 -26 -162 6 -158 22 2 42 28 118 145 50 78 92 141 93 139 2 -1 -22 -64
	-52 -139 -30 -75 -55 -139 -55 -143 0 -3 12 -4 27 -2 25 3 32 16 95 173 37 93
	68 175 68 183 0 9 -12 12 -42 10 l-43 -3 -84 -132 c-47 -73 -86 -131 -87 -130
	-1 1 7 52 17 112 27 161 28 155 -26 155 -38 0 -47 -4 -54 -22z"/>

	</g>

</svg>
