<svg id="new-user-page-animation" version="1.0" xmlns="http://www.w3.org/2000/svg" width="300.000000pt" height="300.000000pt" viewBox="0 0 128.000000 128.000000" preserveAspectRatio="xMidYMid meet">
        <g transform="translate(128.000000,128.000000) scale(-0.100000,-0.100000)">
        <path d="M495 1076 c-17 -7 -36 -20 -43 -29 -11 -13 -27 -15 -91 -10 -87 6
        -103 1 -209 -75 -96 -68 -96 -69 -100 -334 -3 -210 -2 -230 17 -273 24 -55 68
        -79 151 -80 45 -1 64 -8 99 -33 55 -40 99 -48 168 -32 52 13 62 12 256 -33
        111 -26 213 -47 226 -47 69 0 242 142 254 209 12 60 7 463 -6 500 -19 54 -51
        70 -183 92 -65 10 -122 19 -125 19 -3 0 -11 18 -18 40 -6 22 -22 47 -34 55
        -14 9 -80 21 -158 30 -160 18 -166 18 -204 1z m184 -51 c163 -19 161 -18 161
        -63 0 -20 -7 -45 -15 -56 -19 -25 -38 -121 -31 -152 4 -15 14 -24 25 -24 15 0
        20 11 26 57 8 62 29 113 47 113 29 0 216 -32 240 -41 16 -7 31 -23 37 -41 15
        -42 14 -435 0 -476 -12 -34 -112 -124 -166 -150 -31 -15 -42 -13 -200 23 -92
        21 -171 40 -176 42 -4 2 14 19 40 36 149 101 130 376 -34 491 -67 47 -119 46
        -234 -2 -119 -51 -172 -95 -194 -163 -23 -69 -17 -187 13 -248 12 -25 20 -46
        17 -49 -10 -10 -77 11 -102 33 l-28 23 0 230 c0 179 3 235 14 256 22 39 162
        126 205 126 60 0 65 -5 49 -52 -19 -56 -14 -103 11 -103 15 0 22 12 32 53 13
        62 37 97 84 130 39 26 24 25 179 7z m-89 -275 c38 -19 83 -75 108 -133 32 -74
        23 -189 -19 -248 -16 -23 -79 -63 -87 -55 -1 2 2 16 8 32 17 43 13 153 -6 210
        -23 67 -67 129 -116 161 l-40 27 33 12 c49 18 75 17 119 -6z m-149 -72 c139
        -78 163 -345 38 -412 -32 -18 -42 -18 -77 -8 -88 27 -150 119 -160 237 -12
        157 86 247 199 183z" style="stroke-dasharray: 11018.966796875px, 11018.966796875px; stroke-dashoffset: 0px;"></path>
        </g>
      </svg>