<?xml version="1.0" encoding="UTF-8" standalone="no"?>
<!-- Created with Inkscape (http://www.inkscape.org/) -->

<svg
   xmlns:dc="http://purl.org/dc/elements/1.1/"
   xmlns:cc="http://creativecommons.org/ns#"
   xmlns:rdf="http://www.w3.org/1999/02/22-rdf-syntax-ns#"
   xmlns:svg="http://www.w3.org/2000/svg"
   xmlns="http://www.w3.org/2000/svg"
   xmlns:inkscape="http://www.inkscape.org/namespaces/inkscape"
   version="1.1"
   width="744.30725"
   height="1052.3621"
   id="svg2"
   xml:space="preserve"><metadata
     id="metadata8"><rdf:RDF><cc:Work
         rdf:about=""><dc:format>image/svg+xml</dc:format><dc:type
           rdf:resource="http://purl.org/dc/dcmitype/StillImage" /></cc:Work></rdf:RDF></metadata><defs
     id="defs6"><clipPath
       id="clipPath12"><path
         d="m 0.5,-0.5 595.4458,0 0,841.88965 -595.4458,0 L 0.5,-0.5 z"
         inkscape:connector-curvature="0"
         id="path14" /></clipPath></defs><g
     transform="matrix(1.25,0,0,-1.25,-0.625,1051.7371)"
     clip-path="url(#clipPath12)"
     id="g10"><path
       d="m 374.35791,445.41357 c -0.76758,0.45704 -1.92725,0.41456 -2.40039,0.37207 -9.32715,-0.81835 -17.24414,-2.95947 -19.11621,-7.32617 -1.86328,-4.35009 2.69336,-10.56347 7.87158,-11.80713 6.72168,-1.61425 9.11475,-3.59375 8.28662,-8.28466 -0.62158,-3.52198 -5.38672,-7.66504 -11.6001,-7.66504 -6.21337,0 -15.40332,2.87744 -21.12841,13.0498 -3.7295,6.62842 -4.3501,17.81494 -1.24317,23.40674 7.12403,12.82227 21.54346,15.33008 43.5,18.22998 17.96778,2.37305 32.62207,1.70605 47.12354,1.68359 16.8833,-0.0268 18.85009,-0.54394 22.6831,1.42286 2.25,1.15429 5.38672,3.31347 9.32178,3.31347 3.93506,0 8.49316,0 10.35693,-4.76318 1.55616,-3.97754 -1.66113,-10.53809 -8.07861,-15.12158 -8.70019,-6.21485 -19.14893,-8.42676 -31.69336,-7.66504 -7.57422,0.46045 -15.4668,0.85547 -23.18408,1.18652 -0.33301,0.0142 -1.1626,0.0229 -1.76758,-0.3042 -0.6582,-0.35547 -1.08447,-1.06347 -1.2373,-1.42724 -1.61133,-3.82764 -3.5503,-10.28174 -4.46778,-20.37549 -0.82812,-9.11475 -0.82812,-16.39014 -0.82812,-25.47803 0,-1.95996 -0.003,-3.83887 -0.0112,-5.64453 -0.001,-0.21631 0.0322,-0.70801 0.2915,-0.90625 0.30859,-0.23486 0.86817,-0.15723 1.10449,-0.0874 2.29981,0.67529 4.36133,1.48779 6.07178,2.49463 7.04346,4.14355 10.1499,10.97851 15.32861,19.67871 2.22705,3.74072 8.36133,4.67822 11.80811,2.48486 2.27832,-1.44971 8.29932,-7.05029 1.65674,-18.43506 -4.3501,-7.45654 -10.53809,-17.59521 -20.71485,-21.95654 -3.84326,-1.64697 -8.8955,-3.15381 -14.71679,-4.47608 -0.19971,-0.0454 -0.74756,-0.19677 -1.03662,-0.47851 -0.38379,-0.37256 -0.49414,-0.91358 -0.51416,-1.15576 -1.16504,-14.81153 -4.08057,-23.22803 -11.07569,-36.3545 -16.77832,-31.48535 -60.08594,-45.10595 -83.06347,-35.83545 -23.61524,9.52833 -24.23584,33.14209 -16.98584,44.53516 5.5874,8.78076 16.36425,12.63672 26.30712,10.35693 9.94336,-2.27978 10.87647,-10.02392 9.73536,-13.25683 -1.24317,-3.52149 -5.5918,-4.55664 -10.35694,-4.3501 -4.76465,0.20703 -8.90722,-1.44971 -8.90722,-6.00683 0,-4.55665 5.95898,-9.87354 16.98584,-9.73633 16.77832,0.208 32.98584,8.87109 46.19336,27.13672 4.71923,6.52783 7.68603,13.00586 9.49121,19.9331 0.0596,0.23096 0.11914,0.7334 -0.10303,0.99561 -0.22412,0.26465 -0.73096,0.28711 -0.95166,0.26318 -0.18848,-0.0215 -0.37695,-0.0425 -0.56494,-0.064 -15.12158,-1.65674 -19.05713,-10.14991 -19.88672,-13.67139 -0.82959,-3.52149 -7.87012,-5.79981 -11.80664,-1.65674 -3.93653,4.14307 -3.10694,11.80664 0.20654,18.43506 5.09766,10.19678 18.31787,14.64892 27.7583,16.36475 2.09863,0.38085 4.34717,0.708 6.66797,1.01709 0.21973,0.0293 0.70361,0.19238 0.97852,0.54052 0.18701,0.23828 0.2207,0.64893 0.22216,0.81592 10e-4,0.38086 10e-4,0.76318 10e-4,1.14844 0,17.3999 0,37.95068 0,37.95068 -0.0776,7.58692 -0.60156,12.4209 -1.22217,15.49951 -0.10596,0.52686 -0.49951,1.50391 -1.28955,1.97412 z"
       inkscape:connector-curvature="0"
       id="path16"
       style="fill:#dcc218;fill-opacity:1;fill-rule:nonzero;stroke:none" /><path
       d="m 448.65234,470.72607 -1.14453,-0.61718 c -2.67138,-1.3711 -4.30615,-1.35596 -13.37793,-1.27442 l -8.47558,0.0508 -7.54737,0.0503 c -12.208,0.11328 -24.83545,0.22949 -39.8164,-1.74951 -22.97119,-3.0337 -37.45215,-5.83692 -44.84717,-19.14649 -3.41895,-6.1543 -2.83545,-17.91846 1.24805,-25.17529 7.29687,-12.9668 19.22607,-13.97412 22.708,-13.97412 7.03907,0 12.60401,4.7373 13.38477,9.16211 1.25781,7.12207 -4.3208,9.083 -9.64795,10.36279 -2.44873,0.58789 -4.92822,2.64551 -6.1709,5.1206 -0.78662,1.56788 -0.94922,3.06299 -0.45801,4.20997 1.32764,3.09668 7.74561,5.36865 17.60889,6.23486 0.66406,0.0596 1.16797,-0.0347 1.31348,-0.12402 0,0 4.9e-4,-4.9e-4 0.001,-4.9e-4 0.17334,-0.10352 0.38721,-0.5127 0.43946,-0.77491 0.7207,-3.57666 1.12011,-8.67724 1.18652,-15.15966 0,0 -4.9e-4,-38.35938 -4.9e-4,-38.69776 -1.28857,-0.1958 -6.38086,-0.97265 -6.38086,-0.97265 -8.37549,-1.52295 -23.2876,-5.79981 -29.05566,-17.33789 -2.01074,-4.02295 -3.01563,-8.02881 -3.01563,-11.57373 0,-3.60596 1.03955,-6.73438 3.11621,-8.91993 2.34619,-2.47021 5.83741,-3.3789 9.33838,-2.43213 2.89014,0.78223 5.01563,2.66749 5.54639,4.92139 0.57324,2.43115 3.58496,10.35449 17.61816,12.16016 -1.83203,-6.4624 -4.7041,-12.42383 -8.83642,-18.13916 -12.3291,-17.05176 -27.80274,-26.17578 -44.74707,-26.38623 -5.69629,-0.0708 -10.52881,1.43359 -13.25635,4.12793 -1.22168,1.20605 -1.89404,2.5542 -1.89404,3.7959 0,1.13574 0.33496,2.00878 1.02295,2.66796 1.13574,1.08692 3.31982,1.64405 5.99316,1.52784 6.46728,-0.28028 10.78027,1.69336 12.14453,5.5581 0.69092,1.95606 0.84619,5.42383 -0.98779,8.75733 -1.31104,2.38281 -4.11963,5.50878 -10.05127,6.86914 -11.03809,2.53076 -22.38721,-1.9502 -28.2417,-11.15088 -4.51807,-7.09961 -5.61377,-17.37207 -2.79346,-26.17139 2.1333,-6.65088 7.44336,-15.69629 20.63037,-21.01709 24.3794,-9.83642 68.54395,5.14649 85.34082,36.66358 6.65137,12.48046 10.03614,21.21044 11.28369,37.06494 6.28418,1.40381 11.34083,2.94384 15.17383,4.58642 11.0918,4.75342 17.64942,15.99317 21.5669,22.70947 8.0415,13.78272 -1.17188,20.19288 -2.24951,20.87745 -2.19971,1.40039 -5.26758,1.81884 -8.20508,1.12011 -2.72559,-0.64843 -4.90381,-2.14257 -6.1333,-4.20703 l -2.26953,-3.88769 c -3.83741,-6.64307 -6.86817,-11.89014 -12.42041,-15.15625 -1.27295,-0.74903 -2.87452,-1.396 -4.73291,-1.99659 0.002,1.65821 0.008,4.57813 0.008,4.57813 0,9.09619 0,16.28125 0.82031,25.31396 0.91504,10.06104 2.86182,16.34034 4.33301,19.83643 0.0669,0.15723 0.27051,0.4502 0.42871,0.53516 0.0576,0.0303 0.33203,0.10986 0.8291,0.0884 l 23.15186,-1.18457 c 13.43212,-0.81543 24.17968,1.80078 32.85644,7.99902 6.89014,4.92139 10.63623,12.34082 8.7124,17.25732 -2.31445,5.91504 -7.93798,5.91504 -12.04443,5.91504 -3.74902,0 -6.78613,-1.67334 -9.00391,-2.89551 m 0.50977,-3.84326 1.23975,0.66846 c 1.97753,1.08984 4.43847,2.44531 7.25439,2.44531 4.3833,0 7.354,-0.25097 8.66895,-3.61133 1.12793,-2.88281 -1.39795,-8.66748 -7.44434,-12.98632 -7.97315,-5.6958 -17.95996,-8.09375 -30.52979,-7.33057 l -23.2163,1.18848 c -0.73829,0.0312 -1.80616,-0.0337 -2.70752,-0.521 -1.02149,-0.55127 -1.72657,-1.55957 -2.0459,-2.31934 -1.57129,-3.73144 -3.64502,-10.39013 -4.60205,-20.91308 -0.83545,-9.19727 -0.83545,-16.4541 -0.83545,-25.64258 l -0.0112,-5.63574 c -0.004,-0.58789 0.12109,-1.68018 1.00244,-2.35401 1.06885,-0.81445 2.45019,-0.4663 2.71631,-0.38769 2.60693,0.76562 4.72705,1.64014 6.48047,2.67236 6.375,3.74951 9.61718,9.36182 13.72216,16.4668 l 2.24512,3.84668 c 0.71289,1.19726 2.11914,2.12109 3.85693,2.53467 1.97413,0.46923 4.05127,0.22021 5.42041,-0.65235 1.26563,-0.80566 7.26661,-5.3623 1.06446,-15.99218 -3.69238,-6.32911 -9.87207,-16.92237 -19.86328,-21.20411 -3.63184,-1.55664 -8.47852,-3.02832 -14.4043,-4.375 l -1.90088,-0.94873 c -0.84912,-0.82324 -1.02051,-1.88623 -1.0542,-2.30468 -1.08008,-13.71631 -3.61865,-22.04444 -10.86963,-35.6504 -15.96826,-29.96386 -57.76709,-44.29345 -80.78564,-35.00634 -11.88379,4.79492 -16.63819,12.84961 -18.53418,18.7622 -2.50635,7.81543 -1.56397,16.88916 2.39941,23.11914 5.03223,7.90821 14.82715,11.75147 24.37305,9.56299 3.65967,-0.83886 6.31738,-2.59716 7.68555,-5.08398 1.34375,-2.4419 1.10058,-4.79639 0.7456,-5.80322 -1.06347,-3.01172 -5.82568,-3.26172 -8.56933,-3.14209 -2.62452,0.11328 -6.25635,-0.23291 -8.65723,-2.53174 -1.40039,-1.34082 -2.14111,-3.16895 -2.14111,-5.28613 0,-2.21875 1.05566,-4.48291 2.97216,-6.37549 2.00489,-1.98096 6.73096,-5.28662 15.84864,-5.17334 18.1372,0.22509 34.61035,9.86816 47.63916,27.8872 4.65527,6.4375 7.85302,13.15577 9.77685,20.5376 0.0972,0.37598 0.34473,1.65967 -0.4751,2.62549 -0.66552,0.78809 -1.74365,0.97852 -2.52978,0.89258 l -0.57178,-0.0645 c -17.04883,-1.86768 -20.72656,-11.99708 -21.44775,-15.05713 -0.21533,-0.9126 -1.43408,-1.83936 -2.96436,-2.25293 -0.82226,-0.22315 -3.66845,-0.77637 -5.76416,1.42871 -1.50146,1.58105 -2.12402,3.8247 -2.12402,6.30908 0,3.26123 1.07275,6.93555 2.63818,10.06738 5.06299,10.12744 18.75147,13.99072 26.46094,15.39209 l 6.58301,1.00293 c 0.65381,0.0894 1.56201,0.4541 2.16211,1.21582 0.002,0.002 0.61181,1.92237 0.61181,1.92237 0,0.008 10e-4,39.11474 10e-4,39.11474 -0.0684,6.72803 -0.49219,12.05713 -1.25733,15.85791 -0.21093,1.04346 -0.88378,2.42481 -2.13964,3.17236 -1.18506,0.70655 -2.69532,0.6919 -3.48975,0.6211 -11.72803,-1.02979 -18.6665,-3.86182 -20.62012,-8.41748 -0.91943,-2.14697 -0.72363,-4.72608 0.5503,-7.26416 1.72119,-3.42822 5.08252,-6.18408 8.56396,-7.01953 7.17725,-1.72364 7.4043,-3.49512 6.92529,-6.20752 -0.45459,-2.5752 -4.40918,-6.16748 -9.81543,-6.16748 -2.98486,0 -13.2163,0.87451 -19.54882,12.12646 -3.42969,6.09473 -4.03125,16.60986 -1.23829,21.6377 6.70264,12.06299 20.38428,14.4375 42.15284,17.31299 14.73095,1.94531 27.22558,1.83007 39.30859,1.71875 l 7.57471,-0.0508 8.44873,-0.0508 c 9.37256,-0.0845 11.59961,-0.10449 15.06494,1.67334 m -51.53125,-73.92138 0,0 0,0 m -22.3457,54.00878 9.7e-4,0 c 0,0 -9.7e-4,9.8e-4 -10e-4,9.8e-4 0,0 0,0 4.9e-4,-9.8e-4 z"
       inkscape:connector-curvature="0"
       id="path18"
       style="fill:#231f20;fill-opacity:1;fill-rule:nonzero;stroke:none" /><path
       d="m 273.03906,458.72949 c 1.34522,-1.58154 6.45703,-7.05469 15.5874,-10.7417 9.22413,-3.72558 25.68506,-3.10693 33.97168,4.76319 8.28663,7.8706 7.45655,18.43652 3.31348,26.10009 -3.39697,6.28272 -10.76172,13.8794 -13.05029,13.8794 -1.86328,0 -4.02051,-1.3418 -6.21338,-3.521 -2.52344,-2.50634 -4.14307,-4.5581 -4.3501,-6.62842 -0.14551,-1.45703 5.38526,-4.97167 7.87207,-7.66503 2.48633,-2.69336 2.8999,-6.83497 -0.83008,-8.7002 -3.72949,-1.86475 -9.94189,-0.20654 -14.29199,5.59326 -4.34961,5.8003 -4.76465,17.1919 -1.86474,24.02881 2.8999,6.83643 46.60693,102.74219 50.95703,111.23633 1.86035,3.63281 -2.90039,4.97168 -7.25,4.97168 -4.3501,0 -21.36914,-2.23828 -23.40674,-3.93604 -1.24365,-1.03564 -4.64258,-12.57568 -11.28662,-31.23291 -4.66358,-13.09619 -19.57764,-50.58838 -39.25635,-88.70263 -6.03711,-11.69239 -13.46387,-16.77979 -19.26416,-15.74317 -4.79883,0.85791 -7.94092,7.4917 -3.93555,15.12158 6.79346,12.93995 27.13867,53.18555 29.62158,59.24317 4.35694,10.62988 11.18555,28.1709 9.52833,44.32812 -1.65723,16.15772 -11.2544,24.61328 -23.2002,25.89258 -11.59961,1.24268 -21.65186,-2.63769 -29.62158,-12.01416 -7.04248,-8.28564 -7.66406,-20.2998 -4.14258,-31.27832 3.74853,-11.68359 8.49268,-12.84326 14.29297,-11.80713 5.24316,0.93653 7.55566,5.83887 5.7998,10.1499 -2.27832,5.59327 -4.55664,12.01416 -1.24267,15.94971 2.9834,3.54297 9.71093,1.23486 11.60009,-4.14258 2.69239,-7.66406 1.021,-16.4873 -3.10742,-27.75732 -7.66406,-20.92139 -22.37109,-39.979 -29.62109,-53.02881 -7.25,-13.05029 -12.64893,-28.51465 -7.45752,-42.67187 4.55762,-12.42823 15.53613,-21.95655 29,-20.71485 18.72705,1.72754 29.18213,16.00684 31.146,18.94336 0.22656,0.33985 0.46045,0.36963 0.70263,0.085 z"
       inkscape:connector-curvature="0"
       id="path20"
       style="fill:#dcc218;fill-opacity:1;fill-rule:nonzero;stroke:none" /><path
       d="m 224.6875,606.17627 c -6.85254,-8.0625 -8.52979,-20.40088 -4.4873,-33.00586 3.43896,-10.71924 8.17187,-14.49609 16.3374,-13.0376 3,0.53565 5.40136,2.19092 6.7622,4.66114 1.32959,2.41308 1.47461,5.31298 0.39795,7.95654 -2.11474,5.1914 -4.15185,10.99072 -1.53515,14.09863 1.00244,1.19092 2.52197,1.11817 3.33789,0.96875 1.89844,-0.34766 4.23242,-1.88769 5.16601,-4.54394 2.30176,-6.55274 1.40332,-14.24024 -3.09961,-26.53321 -5.25878,-14.35742 -14.06738,-28.12158 -21.1455,-39.18213 -3.14746,-4.91796 -6.11963,-9.5625 -8.35791,-13.59082 -9.63672,-17.34619 -12.11475,-31.79589 -7.57422,-44.17529 5.24902,-14.31543 17.65429,-23.11523 30.86767,-21.896 17.43995,1.6084 28.00049,13.64893 31.50196,18.3584 2.33642,-2.41259 7.30175,-6.80322 15.08838,-9.94824 10.33447,-4.17334 27.22461,-3.10791 35.89892,5.13037 9.23047,8.7666 7.94238,20.35449 3.65967,28.27637 -3.16602,5.85596 -10.98682,14.82959 -14.64453,14.82959 -2.26807,0 -4.78858,-1.36231 -7.49121,-4.04785 -2.7334,-2.71582 -4.60987,-5.0708 -4.87549,-7.73438 -0.18555,-1.85205 1.76758,-3.45166 4.72266,-5.87304 1.34277,-1.1001 2.73144,-2.2378 3.6206,-3.20166 1.07422,-1.16309 1.60742,-2.62061 1.39111,-3.80469 -0.15966,-0.87207 -0.73095,-1.56055 -1.6997,-2.04395 -2.94483,-1.47265 -8.25196,0.0186 -12.03125,5.05957 -4.04981,5.39893 -4.20899,16.19141 -1.646,22.23291 3.32471,7.83838 46.9375,103.37793 50.90137,111.11817 1.02832,2.00781 0.58203,3.51074 0.0278,4.41845 -1.76172,2.88086 -6.80469,3.1919 -8.89111,3.1919 -3.56055,0 -21.81592,-2.06397 -24.56739,-4.35596 -1.12939,-0.94092 -2.12548,-3.7749 -5.75683,-14.4624 l -6.07666,-17.55469 c -4.03272,-11.32617 -18.93018,-49.29931 -39.15918,-88.47998 -5.13672,-9.94824 -11.94141,-15.75391 -17.33496,-14.79004 -1.45215,0.25977 -2.72461,1.30469 -3.48926,2.86719 -1.29199,2.64014 -0.98682,6.14893 0.83984,9.62744 7.07715,13.48193 27.22168,53.3667 29.69385,59.39844 3.70996,9.05176 11.43018,27.88721 9.6543,45.20068 -1.61426,15.73487 -10.88916,26.01905 -24.81006,27.50977 -12.4375,1.33203 -22.93311,-2.92139 -31.19629,-12.64258 m -1.03516,-31.89844 c -3.6582,11.40235 -2.23828,22.4502 3.79786,29.55078 7.43847,8.75196 16.875,12.58301 28.04736,11.38623 12.27295,-1.31494 20.14258,-10.16259 21.58984,-24.27539 1.6836,-16.41015 -5.80371,-34.67773 -9.40234,-43.45605 -2.4419,-5.95703 -22.49512,-45.65088 -29.54932,-59.08838 -2.36914,-4.5127 -2.6914,-9.2168 -0.88525,-12.90625 1.27783,-2.61182 3.5039,-4.37695 6.10644,-4.8418 7.2085,-1.28808 15.13086,4.95313 21.19434,16.69532 20.3208,39.35888 35.29687,77.53662 39.35352,88.92626 l 6.09375,17.60547 c 2.15722,6.34961 4.01855,11.8208 4.71582,12.87159 1.9458,1.20068 17.25488,3.48779 22.17578,3.48779 3.18701,0 5.36572,-0.75147 5.79834,-1.45801 0.10351,-0.16894 0.0483,-0.46435 -0.16211,-0.875 -4.63477,-9.05029 -48.88526,-106.34131 -51.01172,-111.35449 -3.01563,-7.10938 -2.89795,-19.18213 2.08349,-25.82422 5.10254,-6.80371 12.33692,-8.23486 16.55225,-6.12695 1.98535,0.99267 3.27979,2.63867 3.64453,4.63525 0.0713,0.39014 0.10596,0.7876 0.10596,1.18897 0,1.98144 -0.85303,4.05175 -2.39942,5.72705 -1.06054,1.14843 -2.54833,2.3667 -3.98681,3.54541 -1.16797,0.95752 -2.83203,2.333 -3.31983,3.00488 0.33204,1.62988 2.03467,3.54297 3.73047,5.22705 2.62159,2.60547 4.21778,2.99463 4.93604,2.99463 1.51318,-0.3335 8.14746,-6.81006 11.45556,-12.9292 3.64502,-6.74072 4.7793,-16.56592 -2.96679,-23.92334 -7.54883,-7.16943 -22.94678,-8.07129 -32.04444,-4.39697 -8.73486,3.52734 -13.60253,8.72607 -14.88623,10.23584 l 0,0 c -0.65918,0.77441 -1.42724,0.85156 -1.82666,0.82763 -0.40576,-0.0234 -1.17382,-0.19531 -1.76416,-1.08203 -1.83105,-2.73779 -11.88037,-16.49023 -29.8042,-18.14404 -13.34326,-1.23047 -23.24121,8.92432 -27.13232,19.53418 -4.15527,11.33154 -1.75439,24.79785 7.34033,41.16748 2.18311,3.92969 5.12598,8.52881 8.24219,13.39795 7.17334,11.20849 16.10059,25.15869 21.49658,39.88769 4.8208,13.16114 5.72363,21.55811 3.11524,28.98145 -1.24414,3.54297 -4.3584,6.25439 -7.9336,6.90869 -2.70361,0.49512 -5.16894,-0.30664 -6.76269,-2.19922 -4.24659,-5.04297 -0.99317,-13.02929 0.95019,-17.80127 0.66211,-1.62549 0.5835,-3.38916 -0.21533,-4.83935 -0.82275,-1.49317 -2.32373,-2.50244 -4.22461,-2.84229 -4.58203,-0.81885 -8.66894,-0.58496 -12.24805,10.57666 m 48.00586,-116.72265 0,0 0,0 0,0 z"
       inkscape:connector-curvature="0"
       id="path22"
       style="fill:#231f20;fill-opacity:1;fill-rule:nonzero;stroke:none" /><path
       d="m 449.16309,350.00928 c 14.18847,13.20703 29.41357,16.83203 44.9497,12.01367 19.15869,-5.9419 21.54346,-22.57861 18.02198,-36.66357 -3.52198,-14.08497 -17.1919,-24.44336 -30.24219,-25.06495 -8.5044,-0.40478 -15.74317,3.93653 -18.22949,12.84327 -1.9458,6.96972 1.24462,12.01513 5.17968,15.12158 3.93506,3.10693 8.28516,3.72851 9.73487,0.82861 1.45019,-2.90039 -1.18946,-5.05957 -2.48487,-5.80029 -1.45019,-0.82813 -2.25,-4.86377 3.52002,-4.14307 6.62989,0.82813 9.11524,5.38623 9.73682,10.77149 0.26172,2.26416 -0.82861,7.45654 -6.83643,8.70019 -9.00732,1.86328 -13.87695,-2.69189 -25.2705,-16.77832 -13.00342,-16.07764 -22.99317,-34.17871 -29.82959,-49.30029 -6.83643,-15.12158 -10.35694,-32.93506 -7.042,-45.15674 3.31495,-12.22168 11.6001,-16.15674 21.75,-16.15674 7.66358,0 16.98536,0.82861 25.06348,8.90674 4.14746,4.14746 5.59326,8.49316 3.93652,10.77197 -1.86084,2.55713 -4.76611,1.86475 -6.0083,0 -1.2417,-1.86523 -5.34961,-4.00879 -9.94189,-2.90039 -6.00781,1.4502 -10.35791,7.25 -8.90772,13.87842 2.29248,10.47852 10.75586,14.08935 20.50782,14.70703 16.36377,1.03613 24.94726,-6.82275 26.72168,-18.22851 1.45019,-9.32178 -0.11182,-23.51709 -18.43653,-39.35694 -12.22168,-10.56494 -38.32177,-21.75 -57.17138,-8.69971 -13.88721,9.61475 -24.39649,24.63575 -23.2002,49.09327 1.4502,29.62158 12.1167,49.8706 29.20801,77.88476 5.62695,9.22217 14.97607,23.14502 25.27051,32.72852 z"
       inkscape:connector-curvature="0"
       id="path24"
       style="fill:#dcc218;fill-opacity:1;fill-rule:nonzero;stroke:none" /><path
       d="m 447.92822,351.33594 0,0 c -10.29394,-9.58252 -19.59424,-23.29541 -25.58252,-33.11133 -16.3081,-26.72998 -27.96777,-48.0249 -29.47168,-78.74023 -1.06982,-21.8667 6.99805,-38.91504 23.97901,-50.67237 19.89697,-13.7749 46.98681,-1.90088 59.38818,8.81934 14.86914,12.85254 21.27588,26.64941 19.04297,41.00635 -2.1123,13.57617 -12.54688,20.77783 -28.62793,19.75878 -12.53955,-0.79345 -19.99609,-6.22021 -22.16406,-16.12841 -1.57862,-7.21875 2.9248,-14.2583 10.25342,-16.02784 5.02343,-1.21289 10.07568,0.95459 11.87597,3.65772 0.33985,0.51025 0.9253,0.84814 1.49072,0.86035 0.57032,0.0117 1.08936,-0.29834 1.54346,-0.92187 0.96631,-1.32959 -0.17529,-4.84571 -3.75244,-8.42383 -7.36133,-7.36133 -15.78076,-8.37598 -23.78223,-8.37598 -10.90332,0 -17.2583,4.70899 -20.00048,14.81885 -2.98829,11.01709 -0.32862,27.85156 6.94433,43.93506 5.76319,12.74951 15.5752,31.58301 29.58692,48.90722 11.45166,14.1587 15.66601,17.7627 23.49365,16.14356 5.87158,-1.21533 5.40967,-6.6626 5.40332,-6.71729 -0.65186,-5.6499 -3.24512,-8.56689 -8.16016,-9.18115 -1.87842,-0.23437 -2.47803,0.16846 -2.52148,0.2583 -0.0508,0.11182 0.0498,0.43555 0.16797,0.54151 2.78222,1.58691 4.86963,4.74316 3.16406,8.15576 -0.71387,1.42676 -1.92871,2.36767 -3.51465,2.72168 -2.56006,0.57031 -5.91162,-0.52783 -8.96484,-2.93848 -3.23047,-2.55029 -8.28077,-8.15478 -5.80274,-17.03125 2.57031,-9.20508 10.25684,-14.63379 20.06201,-14.1665 14.36084,0.68408 28.37842,12.29638 31.91407,26.43554 4.7749,19.09961 -2.42041,33.6128 -19.24366,38.83448 -16.61377,5.15283 -32.33252,0.97412 -46.72119,-12.41797 m 45.64795,8.95556 c 21.29541,-6.604 18.84326,-26.32129 16.79981,-34.49267 -3.16846,-12.67383 -15.71778,-23.08154 -28.56983,-23.69385 -8.14551,-0.38818 -14.27539,3.91846 -16.39746,11.52002 -1.81738,6.51123 1.4751,10.77832 4.55713,13.21191 2.14014,1.68946 4.46826,2.5708 5.93018,2.24512 0.51269,-0.11474 0.83984,-0.3623 1.06054,-0.80517 0.86866,-1.73731 -1.12988,-3.05323 -1.76318,-3.41504 -1.55957,-0.89161 -2.35254,-3.04444 -1.76709,-4.8003 0.33789,-1.01562 1.63965,-3.31152 6.41113,-2.71533 4.57569,0.57129 10.25244,3.18018 11.3125,12.36182 0.39209,3.38769 -1.50683,9.2832 -8.26953,10.6831 -10.10058,2.08936 -15.71826,-3.40722 -27.04639,-17.41357 -14.25439,-17.62354 -24.22119,-36.75098 -30.07275,-49.69287 -7.60205,-16.81543 -10.33789,-34.58643 -7.13965,-46.37793 3.14844,-11.6084 11.05469,-17.49512 23.49951,-17.49512 8.36084,0 18.02881,1.12158 26.34522,9.43799 4.8042,4.8042 6.42236,9.95361 4.1206,13.11914 -1.15918,1.59326 -2.7749,2.45068 -4.5498,2.41357 -1.7417,-0.0361 -3.44043,-0.98486 -4.43311,-2.47509 -0.83886,-1.26026 -4.23242,-3.0542 -8.00732,-2.14307 -4.72949,1.14209 -8.85156,5.84082 -7.56299,11.72949 1.80469,8.25049 7.97168,12.59619 18.85205,13.28516 14.18799,0.89844 23.00098,-5.03125 24.81592,-16.69824 2.02832,-13.03955 -3.9707,-25.72657 -17.83057,-37.70655 -11.58007,-10.01074 -36.73925,-21.19189 -54.95507,-8.58105 -16.10547,11.15088 -23.43995,26.69336 -22.4209,47.51416 1.46484,29.92773 12.41211,49.93017 28.94482,77.03027 5.87061,9.6211 14.96582,23.04346 24.95801,32.34522 l 0,0 c 13.36768,12.44336 27.89551,16.34912 43.17822,11.60888 z"
       inkscape:connector-curvature="0"
       id="path26"
       style="fill:#231f20;fill-opacity:1;fill-rule:nonzero;stroke:none" /><path
       d="m 133.55713,613.98584 c -12.75635,-13.7876 -30.8457,-22.35107 -48.96484,-23.06836 -22.49219,-0.89062 -32.20972,12.19678 -31.2793,26.30664 1.24316,18.8501 18.8501,32.93604 41.61719,32.97119 13.87695,0.022 22.31591,-3.47217 34.29687,-10.125 l 0.0728,-0.0347 c 2.64161,4.70606 4.65333,9.49122 6.37208,15.08545 l 0.022,0.10547 c -12.31641,-0.86865 -21.92627,-0.40625 -30.3877,3.21924 -11.6001,4.97119 -16.98633,19.05664 -16.57177,28.58496 0.42431,9.73438 3.40917,16.51953 10.35791,21.95752 9.52832,7.45752 14.5,8.49268 21.33544,8.49268 6.83594,0 9.19922,-6.14893 8.49268,-10.56397 -0.82812,-5.17871 -7.03906,-8.45605 -11.6001,-10.35693 -7.45654,-3.10742 -8.49267,-10.56445 -4.14258,-18.02149 2.82032,-4.83447 13.0254,-6.93017 27.0376,-3.33935 l 0.10059,0.0151 c 0.27295,1.4746 0.54785,2.98193 0.82617,4.56738 4.76416,27.13574 9.73437,43.03467 16.98437,57.53467 9.61817,19.23657 23.11719,32.59546 39.15137,35.47338 16.15674,2.89991 25.06446,-4.97314 26.92822,-15.32836 2.49317,-13.84644 0.66846,-33.50074 -12.22167,-51.78711 -14.31592,-20.3086 -33.17334,-38.54102 -54.22413,-46.26465 l -0.0205,-0.11426 c -2.78662,-11.12842 -5.41407,-18.2207 -11.54053,-28.01807 l -0.0601,-0.13574 c 12.20117,-4.96875 22.09277,-4.86133 28.14551,-4.5957 18.8501,0.82812 28.17138,3.93555 36.87158,15.94971 9.80518,13.54101 8.07813,21.75 14.08594,20.71435 5.57129,-0.96094 9.84472,-9.73242 9.94238,-15.32812 0.20654,-11.80762 -5.47998,-22.32422 -15.95019,-29.62159 -13.6709,-9.5288 -40.52051,-14.42871 -57.37793,-12.84277 -8.88575,0.83594 -19.02149,4.55664 -28.24854,8.65869 l -0.0508,-0.0903 m 30.08691,71.58643 c 16.26221,10.35888 31.02344,26.08105 35.91211,36.67431 5.08594,11.02002 3.93604,20.50659 -0.41406,21.75 -4.3501,1.24317 -12.42822,-2.07178 -23.2002,-20.50757 -8.76513,-15.00171 -9.84912,-24.24292 -12.40429,-37.99096 l 0.10644,0.0742 m -48.54052,-62.58789 c -1.46631,0.71875 -2.80664,1.3623 -3.99707,1.9038 -6.83594,3.10743 -13.25782,4.76514 -21.33594,3.7295 -8.07862,-1.03614 -14.70703,-4.97168 -15.53589,-9.32178 -0.66968,-3.5127 3.71997,-6.10742 15.94995,-5.17822 10.27539,0.77978 18.50928,3.97314 25.00879,8.82861 l -0.0898,0.0381 z"
       inkscape:connector-curvature="0"
       id="path28"
       style="fill:#dcc218;fill-opacity:1;fill-rule:nonzero;stroke:none" /><path
       d="m 196.95801,774.57397 c -15.74854,-2.82714 -30.11475,-15.77075 -40.45313,-36.44677 -7.71826,-15.43824 -12.52636,-31.70874 -17.14795,-58.03199 0,0 -0.36035,-1.99169 -0.60449,-3.34033 -12.88428,-3.07275 -21.82275,-1.05224 -24.00928,2.69678 -2.19189,3.7583 -2.86328,7.42578 -1.88867,10.32617 0.76612,2.28223 2.50342,4.00049 5.16309,5.10938 7.79687,3.24951 11.94873,7.09033 12.69287,11.74365 0.52881,3.30469 -0.41699,6.85254 -2.46826,9.25781 -1.89893,2.2273 -4.60156,3.40479 -7.81446,3.40479 -7.52734,0 -12.80712,-1.32813 -22.45312,-8.87793 -7.18555,-5.62354 -10.59375,-12.81104 -11.05127,-23.30615 -0.47754,-10.98194 6.00049,-25.32959 17.66943,-30.32959 7.3877,-3.16602 15.81446,-4.20264 28.48487,-3.51368 -1.30616,-3.85107 -2.80127,-7.39111 -4.57569,-10.74609 -11.77636,6.41504 -20.16845,9.50928 -33.57422,9.48779 -23.45434,-0.0366 -42.12231,-14.93896 -43.42309,-34.66455 -0.50269,-7.6206 1.92724,-14.59619 6.84302,-19.64258 5.91259,-6.07031 15.01245,-9.04199 26.31591,-8.59423 18.04688,0.71435 36.39649,9.2456 49.38282,22.82617 11.13818,-4.86328 20.22363,-7.62158 27.64013,-8.31983 16.89356,-1.58935 44.46534,3.31983 58.58448,13.16065 11.00341,7.66894 16.94336,18.72802 16.72607,31.14013 -0.10547,6.03272 -4.72461,15.92286 -11.44727,17.08252 -4.75683,0.82032 -6.24511,-2.73535 -8.12988,-7.23779 -1.47314,-3.52148 -3.49267,-8.34473 -7.73144,-14.19971 -7.91553,-10.93017 -15.87403,-14.33984 -35.4834,-15.20166 -6.87158,-0.30175 -15.25293,0.0298 -25.38233,3.771 5.53858,9.21728 8.01514,16.26416 10.47901,25.97217 18.84765,7.21338 38.04638,23.66455 54.16406,46.52978 10.9834,15.58106 13.49512,30.97608 13.49512,41.79444 0,4.82714 -0.50049,8.74316 -0.97119,11.35864 -1.76954,9.83203 -10.43555,20.12866 -29.03174,16.79101 M 140.66553,673.44336 c 0.68603,0.17627 1.30615,0.74365 1.43213,1.44092 l 0.8291,4.58349 c 4.55615,25.94873 9.27246,41.94117 16.8208,57.03809 9.81396,19.62817 23.25635,31.88013 37.8501,34.49976 15.94726,2.86254 23.28027,-5.28516 24.82422,-13.86573 1.44531,-8.02588 3.17724,-29.00635 -11.91846,-50.42114 -15.95899,-22.63867 -34.91162,-38.83594 -53.36768,-45.60791 -0.56347,-0.20703 -1.00781,-0.79297 -1.15381,-1.375 -2.60351,-10.39404 -5.06884,-17.50049 -11.31982,-27.49756 -0.2832,-0.45312 -0.38232,-1.07715 -0.21729,-1.58594 0.16456,-0.50927 0.51563,-0.98779 1.01026,-1.18945 13.2915,-5.4126 24.23584,-4.93262 28.90869,-4.72803 18.31348,0.80469 28.70996,3.50879 38.26025,16.69776 4.48584,6.19433 6.59766,11.2417 8.13965,14.92578 2.02637,4.84082 2.45508,5.36133 4.17041,5.06543 4.54053,-0.7832 8.35449,-8.77393 8.43799,-13.57422 0.19531,-11.16602 -5.19336,-21.14648 -15.17383,-28.10254 -13.46728,-9.38623 -39.91748,-14.0542 -56.17187,-12.5249 -7.28907,0.68603 -16.34375,3.46924 -27.68213,8.51025 -0.7085,0.31494 -1.58985,0.0537 -2.11719,-0.51562 -12.38769,-13.38965 -30.22217,-21.7959 -47.70654,-22.48828 -10.24829,-0.40577 -18.40039,2.18847 -23.57593,7.50146 -4.18921,4.30029 -6.25659,10.29297 -5.82324,16.87549 1.1936,18.08935 17.93652,31.24365 39.81177,31.27734 13.2207,0.0215 21.3081,-3.1748 33.41406,-9.89697 0.87207,-0.48438 2.04443,-0.20752 2.5332,0.6626 2.68262,4.77881 4.75537,9.68457 6.52393,15.43994 0.17578,0.57178 0.0688,1.24609 -0.30225,1.71289 -0.37207,0.46777 -0.93945,0.77539 -1.53564,0.7334 -13.63965,-0.96192 -22.20166,-0.0708 -29.54639,3.07715 -11.26953,4.8291 -15.8335,18.60302 -15.47412,26.84033 0.41162,9.4668 3.30176,15.63037 9.66357,20.60889 8.8628,6.93701 13.40039,8.10742 20.21826,8.10742 2.14893,0 3.8501,-0.71729 5.05616,-2.13184 1.36084,-1.5957 2.00683,-4.08154 1.64648,-6.33301 -0.52148,-3.26416 -4.05762,-6.28222 -10.50732,-8.9707 -3.61573,-1.50635 -6.10742,-4.03125 -7.20557,-7.30078 -1.31103,-3.90674 -0.53223,-8.63135 2.19482,-13.30713 3.52881,-6.0498 15.20459,-7.73047 29.05323,-4.18164 z"
       inkscape:connector-curvature="0"
       id="path30"
       style="fill:#231f20;fill-opacity:1;fill-rule:nonzero;stroke:none" /><path
       d="m 174.37744,724.40308 c -8.1416,-13.93433 -9.82959,-23.22535 -11.96533,-34.98804 l -0.65625,-3.58545 c -0.12988,-0.70947 0.22559,-1.39355 0.82324,-1.79541 0.59815,-0.40234 1.43018,-0.37744 2.03858,0.01 15.84277,10.09179 31.22851,25.83886 36.58398,37.44287 3.64893,7.90625 4.55225,15.7893 2.3584,20.57251 -0.88379,1.92724 -2.23926,3.1997 -3.92041,3.67968 -4.09522,1.1709 -12.82276,-0.0447 -25.26221,-21.33593 m 3.1294,-1.82813 c 9.49414,16.24951 17.14453,20.81983 21.13769,19.6792 0.79785,-0.22876 1.32178,-1.05347 1.62061,-1.70557 0.52392,-1.14282 0.83154,-2.76123 0.83154,-4.74023 0,-3.40112 -0.9082,-7.86597 -3.18604,-12.802 -4.63281,-10.03906 -17.92285,-23.91992 -31.80615,-33.55664 2.08985,11.49804 3.73828,20.00732 11.40235,33.12524 z"
       inkscape:connector-curvature="0"
       id="path32"
       style="fill:#231f20;fill-opacity:1;fill-rule:nonzero;stroke:none" /><path
       d="m 89.53955,630.41504 c -9.07178,-1.16309 -16.09717,-5.59619 -17.08569,-10.78027 -0.30567,-1.60352 0.10351,-3.08936 1.17407,-4.28907 2.38867,-2.67382 8.00537,-3.6958 16.69385,-3.03564 10.09131,0.7666 18.8247,3.85644 25.95654,9.18408 0.50879,0.38037 0.74561,1.01318 0.68311,1.64551 -0.0625,0.63135 -0.48731,1.19922 -1.06006,1.47265 l -4.04444,1.92579 c -8.10498,3.68457 -14.77832,4.84326 -22.31738,3.87695 m -13.20801,-12.6543 c -0.31396,0.35205 -0.40918,0.70947 -0.3164,1.19531 0.583,3.0586 5.97363,6.83643 13.98632,7.86377 6.91211,0.88623 12.80909,-0.15234 20.35499,-3.58203 0,0 0.47998,-0.22851 1.09375,-0.52099 -6.06983,-3.82325 -13.20704,-6.16944 -21.40284,-6.792 -10.49267,-0.79687 -13.15136,1.20362 -13.71582,1.83594 z"
       inkscape:connector-curvature="0"
       id="path34"
       style="fill:#231f20;fill-opacity:1;fill-rule:nonzero;stroke:none" /></g></svg>